<svg id="Capa_1" enable-background="new 0 0 497 497" height="512" viewBox="0 0 497 497" width="512" xmlns="http://www.w3.org/2000/svg"><path d="m437 379.5v75h30c16.569 0 30-13.431 30-30z" fill="#5515a6"/><path d="m78.576 394.5-78.576 30c0 16.569 13.431 30 30 30h151l67.5-47.879 67.5 47.879h121c16.569 0 30-13.431 30-30v-30z" fill="#6241ea"/><path d="m181 394.5h135v60h-135z" fill="#28abfa"/><path d="m437 42.5h-30v352l30-30c16.5 0 30-13.5 30-30v-262c0-16.5-13.5-30-30-30z" fill="#5515a6"/><path d="m437 72.5c0-16.5-13.5-30-30-30h-347c-16.5 0-30 13.5-30 30v262c0 16.5 13.5 30 30 30l188.5 45 158.5-45c16.5 0 30-13.5 30-30l-75-131z" fill="#6241ea"/><path d="m407 72.5-85 131 85 131h30v-262z" fill="#c4f3ff"/><path d="m60 72.5h347v262h-347z" fill="#fff"/><path d="m475.292 381.083c-5.082-10.164-15.47-16.583-26.833-16.583h-30l48.541 60h30z" fill="#340d66"/><path d="m418.459 364.5h-369.918c-11.363 0-21.751 6.42-26.833 16.583l-21.708 43.417h467l-21.708-43.417c-5.082-10.163-15.47-16.583-26.833-16.583z" fill="#5515a6"/></svg>