<?xml version="1.0" encoding="iso-8859-1"?>
<!-- Generator: Adobe Illustrator 19.0.0, SVG Export Plug-In . SVG Version: 6.00 Build 0)  -->
<svg version="1.1" id="Capa_1" xmlns="http://www.w3.org/2000/svg" xmlns:xlink="http://www.w3.org/1999/xlink" x="0px" y="0px"
	 viewBox="0 0 512 512" style="enable-background:new 0 0 512 512;" xml:space="preserve">
<path style="fill:#E6E7E8;" d="M25.6,452.267h460.8c9.429,0,17.067-7.637,17.067-17.067V145.067c0-9.429-7.637-17.067-17.067-17.067
	h-93.867c-9.429,0-17.067-7.637-17.067-17.067V93.867c0-18.85-15.283-34.133-34.133-34.133H170.667
	c-18.85,0-34.133,15.283-34.133,34.133v17.067c0,9.429-7.637,17.067-17.067,17.067H25.6c-9.429,0-17.067,7.637-17.067,17.067V435.2
	C8.533,444.629,16.171,452.267,25.6,452.267z M418.133,162.133h34.133c9.429,0,17.067,7.637,17.067,17.067
	c0,9.429-7.637,17.067-17.067,17.067h-34.133c-9.429,0-17.067-7.637-17.067-17.067C401.067,169.771,408.704,162.133,418.133,162.133
	z M256,170.667c65.98,0,119.467,53.487,119.467,119.467S321.98,409.6,256,409.6s-119.467-53.487-119.467-119.467
	S190.02,170.667,256,170.667z M136.533,392.533c9.429,0,17.067,7.637,17.067,17.067c0,9.429-7.637,17.067-17.067,17.067
	s-17.067-7.637-17.067-17.067C119.467,400.171,127.104,392.533,136.533,392.533z"/>
<circle style="fill:#414042;" cx="256" cy="290.133" r="119.467"/>
<g>
	<circle style="fill:#E6E7E8;" cx="136.533" cy="409.6" r="17.067"/>
	<path style="fill:#E6E7E8;" d="M418.133,196.267h34.133c9.429,0,17.067-7.637,17.067-17.067c0-9.429-7.637-17.067-17.067-17.067
		h-34.133c-9.429,0-17.067,7.637-17.067,17.067C401.067,188.629,408.704,196.267,418.133,196.267z"/>
</g>
<rect x="51.2" y="102.4" style="fill:#ACABB1;" width="51.2" height="25.6"/>
<g>
	<path style="fill:#231F20;" d="M256,418.133c-70.69,0-128-57.31-128-128s57.31-128,128-128s128,57.31,128,128
		C383.923,360.789,326.656,418.057,256,418.133z M256,179.2c-61.269,0-110.933,49.664-110.933,110.933S194.731,401.067,256,401.067
		s110.933-49.664,110.933-110.933C366.865,228.898,317.235,179.268,256,179.2z"/>
	<path style="fill:#231F20;" d="M136.533,435.2c-14.14,0-25.6-11.46-25.6-25.6c0-14.14,11.46-25.6,25.6-25.6s25.6,11.46,25.6,25.6
		C162.133,423.74,150.673,435.2,136.533,435.2z M136.533,401.067c-4.71,0-8.533,3.823-8.533,8.533c0,4.71,3.823,8.533,8.533,8.533
		s8.533-3.823,8.533-8.533C145.067,404.89,141.244,401.067,136.533,401.067z"/>
	<path style="fill:#231F20;" d="M452.267,204.8h-34.133c-14.14,0-25.6-11.46-25.6-25.6c0-14.14,11.46-25.6,25.6-25.6h34.133
		c14.14,0,25.6,11.46,25.6,25.6C477.867,193.34,466.406,204.8,452.267,204.8L452.267,204.8z M418.133,170.667
		c-4.71,0-8.533,3.823-8.533,8.533s3.823,8.533,8.533,8.533h34.133c4.71,0,8.533-3.823,8.533-8.533s-3.823-8.533-8.533-8.533
		H418.133z"/>
	<path style="fill:#231F20;" d="M486.4,119.467h-93.867c-4.71,0-8.533-3.823-8.533-8.533V93.867
		c-0.026-23.552-19.115-42.641-42.667-42.667H170.667C147.115,51.226,128.026,70.315,128,93.867v17.067
		c0,4.71-3.823,8.533-8.533,8.533h-8.533v-25.6H42.667v25.6H25.6c-14.14,0-25.6,11.46-25.6,25.6V435.2c0,14.14,11.46,25.6,25.6,25.6
		h460.8c14.14,0,25.6-11.46,25.6-25.6V145.067C512,130.927,500.54,119.467,486.4,119.467z M59.733,110.933h34.133v8.533H59.733
		V110.933z M494.933,435.2c0,4.71-3.823,8.533-8.533,8.533H25.6c-4.71,0-8.533-3.823-8.533-8.533V145.067
		c0-4.71,3.823-8.533,8.533-8.533h93.867c14.14,0,25.6-11.46,25.6-25.6V93.867c0-14.14,11.46-25.6,25.6-25.6h170.667
		c14.14,0,25.6,11.46,25.6,25.6v17.067c0,14.14,11.46,25.6,25.6,25.6H486.4c4.71,0,8.533,3.823,8.533,8.533V435.2z"/>
</g>
<g>
</g>
<g>
</g>
<g>
</g>
<g>
</g>
<g>
</g>
<g>
</g>
<g>
</g>
<g>
</g>
<g>
</g>
<g>
</g>
<g>
</g>
<g>
</g>
<g>
</g>
<g>
</g>
<g>
</g>
</svg>
