<svg height="512pt" viewBox="0 -4 512 511" width="512pt" xmlns="http://www.w3.org/2000/svg"><path d="m503.464844 51.699219h-494.929688v392.535156c0 28.277344 22.917969 51.199219 51.199219 51.199219h392.53125c28.28125 0 51.199219-22.921875 51.199219-51.199219zm0 0" fill="#f7e6a1"/><path d="m435.199219 24.972656v360.652344c0 8.808594 7.132812 15.941406 15.941406 15.941406h9.660156c24.371094 0 40.917969 18.832032 42.664063 42.667969v-392.535156c-1.746094-23.832031-18.292969-42.664063-42.664063-42.664063h-9.660156c-8.808594 0-15.941406 7.132813-15.941406 15.9375zm0 0" fill="#d6ba3e"/><path d="m240.589844 236.890625 8.925781-16.589844c4.640625-8.625 16.136719-8.625 20.777344 0l8.925781 16.589844c4.675781 8.695313-1.109375 19.609375-10.382812 19.609375h-17.855469c-9.28125 0-15.066407-10.914062-10.390625-19.609375zm0 0" fill="#be6e41"/><path d="m172.320312 364.890625 8.925782-16.589844c4.644531-8.625 16.136718-8.625 20.78125 0l8.925781 16.589844c4.675781 8.695313-1.109375 19.609375-10.386719 19.609375h-17.851562c-9.285156 0-15.070313-10.914062-10.394532-19.609375zm0 0" fill="#6c4127"/><path d="m145.066406 205.300781c0 14.136719-11.460937 25.597657-25.601562 25.597657-14.136719 0-25.597656-11.460938-25.597656-25.597657 0-14.140625 11.460937-25.601562 25.597656-25.601562 14.140625 0 25.601562 11.460937 25.601562 25.601562zm0 0" fill="#61b872"/><g fill="#4d007e"><path d="m503.464844 452.765625c-4.445313 0-8.171875-3.4375-8.507813-7.910156-1.5-20.460938-15.546875-34.753907-34.15625-34.753907h-9.660156c-13.492187 0-24.472656-10.984374-24.472656-24.476562v-360.652344c0-13.492187 10.980469-24.472656 24.472656-24.472656h9.660156c27.945313 0 48.988281 20.796875 51.171875 50.578125l.027344 393.15625c0 4.589844-3.636719 8.351563-8.21875 8.53125-.109375 0-.210938 0-.316406 0zm-52.324219-435.199219c-4.078125 0-7.40625 3.328125-7.40625 7.40625v360.652344c0 4.082031 3.328125 7.410156 7.40625 7.410156h9.660156c13.40625 0 25.222657 4.785156 34.132813 13.054688v-354.390625c-1.476563-19.839844-15.523438-34.132813-34.132813-34.132813zm0 0"/><path d="m452.265625 503.964844h-392.53125c-32.941406 0-59.734375-26.792969-59.734375-59.730469v-392.535156c0-4.710938 3.824219-8.53125 8.535156-8.53125h426.664063c4.710937 0 8.535156 3.820312 8.535156 8.53125v333.925781c0 4.082031 3.328125 7.410156 7.40625 7.410156h9.660156c27.945313 0 48.988281 20.792969 51.183594 50.574219.015625 33.5625-26.777344 60.355469-59.71875 60.355469zm-435.199219-443.730469v384c0 23.523437 19.140625 42.664063 42.667969 42.664063h392.53125c23.527344 0 42.667969-19.140626 42.667969-42.664063-1.476563-19.839844-15.523438-34.132813-34.132813-34.132813h-9.660156c-13.492187 0-24.472656-10.984374-24.472656-24.476562v-325.390625zm0 0"/><path d="m238.933594 171.167969c-2.183594 0-4.371094-.835938-6.035156-2.5l-59.730469-59.734375c-3.335938-3.335938-3.335938-8.730469 0-12.066406 3.328125-3.335938 8.738281-3.335938 12.066406 0l59.730469 59.734374c3.339844 3.335938 3.339844 8.726563 0 12.066407-1.664063 1.664062-3.847656 2.5-6.03125 2.5zm0 0"/><path d="m179.199219 171.167969c-2.183594 0-4.367188-.835938-6.03125-2.5-3.335938-3.339844-3.335938-8.730469 0-12.066407l59.730469-59.734374c3.328124-3.335938 8.738281-3.335938 12.066406 0 3.339844 3.335937 3.339844 8.730468 0 12.066406l-59.730469 59.734375c-1.664063 1.664062-3.851563 2.5-6.035156 2.5zm0 0"/><path d="m145.066406 145.566406h-17.066406c-4.710938 0-8.535156-3.824218-8.535156-8.53125 0-4.710937 3.824218-8.535156 8.535156-8.535156h17.066406c4.710938 0 8.535156 3.824219 8.535156 8.535156 0 4.707032-3.824218 8.53125-8.535156 8.53125zm0 0"/><path d="m85.332031 145.566406h-17.066406c-4.710937 0-8.53125-3.824218-8.53125-8.53125 0-4.710937 3.820313-8.535156 8.53125-8.535156h17.066406c4.710938 0 8.535157 3.824219 8.535157 8.535156 0 4.707032-3.824219 8.53125-8.535157 8.53125zm0 0"/><path d="m401.066406 503.964844c-4.710937 0-8.53125-3.820313-8.53125-8.53125 0-4.796875-.785156-9.496094-2.339844-13.996094-1.535156-4.453125.828126-9.308594 5.28125-10.851562 4.464844-1.546876 9.3125.824218 10.855469 5.28125 2.167969 6.289062 3.269531 12.875 3.269531 19.566406 0 4.710937-3.824218 8.53125-8.535156 8.53125zm0 0"/><path d="m371.625 457.605469c-1.21875 0-2.457031-.257813-3.625-.8125-5.683594-2.667969-11.777344-4.027344-18.132812-4.027344h-10.179688c-4.710938 0-8.535156-3.820313-8.535156-8.53125s3.824218-8.535156 8.535156-8.535156h10.179688c8.882812 0 17.425781 1.902343 25.402343 5.648437 4.265625 2.007813 6.09375 7.09375 4.089844 11.359375-1.460937 3.082031-4.53125 4.898438-7.734375 4.898438zm-72.769531-4.839844h-32.667969c-4.710938 0-8.53125-3.820313-8.53125-8.53125s3.820312-8.535156 8.53125-8.535156h32.667969c4.710937 0 8.53125 3.824219 8.53125 8.535156s-3.820313 8.53125-8.53125 8.53125zm-73.5 0h-32.664063c-4.710937 0-8.535156-3.820313-8.535156-8.53125s3.824219-8.535156 8.535156-8.535156h32.664063c4.710937 0 8.535156 3.824219 8.535156 8.535156s-3.824219 8.53125-8.535156 8.53125zm-72.191407-8.257813c-1.296874 0-2.617187-.300781-3.855468-.921874-10.710938-5.445313-20.378906-13.277344-27.957032-22.65625-2.960937-3.671876-2.386718-9.039063 1.273438-12 3.660156-2.960938 9.035156-2.386719 11.996094 1.273437 6.078125 7.527344 13.832031 13.804687 22.410156 18.167969 4.199219 2.132812 5.878906 7.269531 3.746094 11.476562-1.503906 2.953125-4.496094 4.660156-7.613282 4.660156zm-41.421874-57.34375c-4.164063 0-7.804688-3.046874-8.429688-7.289062-.605469-4.085938-.914062-8.269531-.914062-12.441406 0-7.980469 1.121093-15.878906 3.3125-23.5 1.304687-4.53125 6.03125-7.125 10.5625-5.835938 4.53125 1.304688 7.144531 6.03125 5.839843 10.5625-1.757812 6.085938-2.648437 12.398438-2.648437 18.773438 0 3.335937.25 6.679687.726562 9.957031.691406 4.660156-2.535156 9.003906-7.191406 9.6875-.417969.058594-.835938.085937-1.257812.085937zm23.144531-66.792968c-2.253907 0-4.507813-.886719-6.1875-2.652344-3.25-3.414062-3.113281-8.816406.300781-12.066406 8.761719-8.335938 19.378906-14.832032 30.703125-18.789063 4.433594-1.5625 9.316406.785157 10.871094 5.238281 1.550781 4.445313-.785157 9.316407-5.242188 10.871094-9.050781 3.164063-17.542969 8.371094-24.566406 15.050782-1.648437 1.570312-3.761719 2.347656-5.878906 2.347656zm100.640625-21.203125h-32.664063c-4.710937 0-8.535156-3.824219-8.535156-8.535157 0-4.710937 3.824219-8.53125 8.535156-8.53125h32.664063c4.710937 0 8.535156 3.820313 8.535156 8.53125 0 4.710938-3.824219 8.535157-8.535156 8.535157zm40.824218-.070313c-4.546874 0-8.328124-3.582031-8.523437-8.175781-.195313-4.707031 3.453125-8.683594 8.164063-8.890625 9.761718-.417969 19.125-2.875 27.828124-7.3125 4.207032-2.152344 9.34375-.46875 11.476563 3.730469 2.132813 4.195312.46875 9.332031-3.726563 11.476562-10.90625 5.554688-22.632812 8.636719-34.851562 9.15625-.121094.007813-.246094.015625-.367188.015625zm61.277344-35.285156c-1.585937 0-3.191406-.441406-4.625-1.363281-3.957031-2.5625-5.09375-7.84375-2.542968-11.804688 5.324218-8.234375 8.730468-17.296875 10.148437-26.9375.679687-4.660156 5.015625-7.894531 9.675781-7.203125 4.660156.683594 7.882813 5.019532 7.203125 9.675782-1.769531 12.074218-6.042969 23.417968-12.691406 33.726562-1.621094 2.53125-4.359375 3.90625-7.167969 3.90625zm6.546875-70.375c-3.363281 0-6.546875-1.996094-7.902343-5.296875-3.644532-8.894531-9.285157-17.117187-16.316407-23.785156-3.421875-3.242188-3.558593-8.644531-.324219-12.066407 3.242188-3.421874 8.644532-3.554687 12.066407-.324218 8.765625 8.3125 15.8125 18.578125 20.359375 29.6875 1.785156 4.363281-.296875 9.347656-4.65625 11.136718-1.050782.445313-2.152344.648438-3.226563.648438zm0 0"/><path d="m290.015625 147.460938c-.632813 0-1.265625-.066407-1.90625-.214844-4.90625-1.117188-9.964844-1.679688-15.042969-1.679688-4.710937 0-8.53125-3.824218-8.53125-8.53125 0-4.710937 3.820313-8.535156 8.53125-8.535156 6.359375 0 12.6875.707031 18.84375 2.109375 4.589844 1.046875 7.464844 5.621094 6.421875 10.210937-.902343 3.960938-4.425781 6.640626-8.316406 6.640626zm0 0"/><path d="m315.742188 410.101562c-2.9375 0-5.792969-1.519531-7.382813-4.234374l-22.492187-38.5625-22.496094 38.5625c-2.371094 4.070312-7.601563 5.445312-11.671875 3.074218-4.070313-2.375-5.445313-7.605468-3.070313-11.675781l29.863282-51.199219c3.054687-5.238281 11.683593-5.238281 14.746093 0l29.867188 51.199219c2.371093 4.070313 1 9.292969-3.070313 11.675781-1.359375.78125-2.835937 1.160156-4.292968 1.160156zm0 0"/><path d="m268.835938 265.035156h-17.855469c-7.125 0-13.632813-3.773437-17.414063-10.097656-4.019531-6.722656-4.207031-15.1875-.488281-22.082031l8.925781-16.589844c3.6875-6.871094 10.378906-10.964844 17.90625-10.964844 7.523438 0 14.214844 4.09375 17.910156 10.964844l8.925782 16.589844c3.710937 6.902343 3.523437 15.367187-.496094 22.089843-3.78125 6.316407-10.289062 10.089844-17.414062 10.089844zm-20.730469-24.101562c-1.058594 1.964844-.628907 3.996094.113281 5.25.484375.808594 1.355469 1.78125 2.761719 1.78125h17.855469c1.398437 0 2.277343-.960938 2.753906-1.773438.75-1.253906 1.167968-3.285156.113281-5.257812l-8.925781-16.585938c-.921875-1.726562-2.195313-1.980468-2.867188-1.980468-.675781 0-1.949218.253906-2.867187 1.980468zm0 0"/><path d="m200.566406 393.035156h-17.851562c-7.125 0-13.636719-3.773437-17.414063-10.097656-4.019531-6.722656-4.207031-15.1875-.488281-22.082031l8.925781-16.589844c3.6875-6.871094 10.375-10.964844 17.902344-10.964844 7.519531 0 14.21875 4.09375 17.902344 10.964844l8.925781 16.578125c3.714844 6.90625 3.527344 15.371094-.484375 22.09375-3.78125 6.324219-10.292969 10.097656-17.417969 10.097656zm-20.726562-24.101562c-1.058594 1.964844-.632813 3.996094.109375 5.25.488281.808594 1.359375 1.78125 2.765625 1.78125h17.851562c1.410156 0 2.28125-.972656 2.765625-1.78125.75-1.246094 1.167969-3.285156.109375-5.25l-8.925781-16.578125c-.929687-1.734375-2.199219-1.988281-2.875-1.988281-.671875 0-1.945313.253906-2.867187 1.980468zm0 0"/><path d="m119.464844 239.433594c-18.824219 0-34.132813-15.308594-34.132813-34.132813s15.308594-34.132812 34.132813-34.132812c18.828125 0 34.136718 15.308593 34.136718 34.132812s-15.308593 34.132813-34.136718 34.132813zm0-51.199219c-9.410156 0-17.066406 7.652344-17.066406 17.066406 0 9.410157 7.65625 17.066407 17.066406 17.066407 9.414062 0 17.070312-7.65625 17.070312-17.066407 0-9.414062-7.65625-17.066406-17.070312-17.066406zm0 0"/><path d="m119.464844 265.035156c-4.707032 0-8.53125-3.824218-8.53125-8.535156v-25.601562c0-4.707032 3.824218-8.53125 8.53125-8.53125 4.710937 0 8.535156 3.824218 8.535156 8.53125v25.601562c0 4.710938-3.824219 8.535156-8.535156 8.535156zm0 0"/></g></svg>