<?xml version="1.0" encoding="utf-8"?>
<!-- Generator: Adobe Illustrator 23.0.4, SVG Export Plug-In . SVG Version: 6.00 Build 0)  -->
<svg version="1.1" id="Layer_1" xmlns="http://www.w3.org/2000/svg" xmlns:xlink="http://www.w3.org/1999/xlink" x="0px" y="0px"
	 viewBox="0 0 2482.8 3220.3" style="enable-background:new 0 0 2482.8 3220.3;" xml:space="preserve">
<style type="text/css">
	.st0{fill-rule:evenodd;clip-rule:evenodd;fill:#727376;stroke:#727376;stroke-width:9.354;}
	.st1{fill-rule:evenodd;clip-rule:evenodd;fill:#A9ABAE;stroke:#A9ABAE;stroke-width:9.354;}
	.st2{fill-rule:evenodd;clip-rule:evenodd;fill:#EAEAEA;stroke:#FEFEFE;stroke-width:9.354;}
</style>
<g id="Layer_x0020_1">
	<path class="st0" d="M2477.6,2151.1c-5,0.5-14.9,1.3-25.2,2.4c-10.3,1-21,2.2-32.3,3.6c-11.3,1.4-23.4,3-36.6,5.1
		c-13.2,2.1-27.4,4.7-41.3,7.3c-13.9,2.6-27.5,5.3-42.1,8.3c-14.6,2.9-30.3,6.3-46.2,9.7s-31.9,7.1-47.1,10.6
		c-15.3,3.5-29.7,6.9-48.9,11.5c-19.1,4.6-43,10.4-65.8,16.1c-22.8,5.7-44.6,11.4-68.4,18c-23.8,6.6-49.7,14.1-75.8,22.1
		c-26.1,8.1-52.4,16.7-80.5,26.9c-28.1,10.2-57.9,21.8-87.6,34.1c-29.6,12.2-58.9,25-86.8,37.8c-28,12.9-54.5,25.9-90.7,44.5
		c-36.2,18.7-82.1,42.9-127.7,68.5s-90.9,52.7-139.4,84.2c-48.5,31.5-100.2,67.5-164.4,116.5c-64.2,48.9-141,110.8-219.2,183.6
		c-78.3,72.8-158,156.6-212.8,218.2c-54.7,61.5-84.4,100.7-99.3,120.3c-14.8,19.6-14.8,19.6-14.8,19.6l0,0l0,0l0,0l0,0
		c0,0,0,0-0.1-94.2c-0.1-94.2-0.3-282.6-0.4-376.8c-0.1-94.2-0.1-94.2-0.1-94.2l0,0l0,0l0,0l0,0c0,0,0,0,8.9-6.3
		c8.9-6.3,26.8-18.8,63.3-41.1c36.6-22.3,91.8-54.5,152.2-86.5c60.5-32,126-63.7,206.3-99.2c80.3-35.5,175.3-74.7,248-102.4
		c72.8-27.7,123.3-43.9,188.2-62.1c64.9-18.1,144.2-38,216.8-53.8c72.7-15.8,138.8-27.4,191.6-35.5c52.8-8.1,92.4-12.7,134.8-16.5
		c42.4-3.8,87.7-6.8,135-8.4c47.4-1.6,96.7-1.8,138.1-1.4c41.3,0.4,74.7,1.3,99.8,2.2c25.1,0.9,41.9,1.7,52.8,2.7s15.8,2.2,18.2,2.8
		c2.5,0.6,2.5,0.6,2.5,0.6l0,0l0,0c0.1,0,0.1,0,0.4,0.1c0.3,0.1,0.9,0.3,1.2,0.4c0.3,0.1,0.3,0.1,0.3,0.1l0,0l0,0l0,0l0,0l0,0l0,0
		l0,0l0,0C2482.6,2150.6,2482.6,2150.7,2477.6,2151.1z"/>
	<path class="st1" d="M2466.1,2147c-6.6-1.2-18.5-3.6-33.1-6.4c-14.6-2.8-31.6-6-53.9-9.4c-22.3-3.4-49.8-6.9-80-9.2
		c-30.2-2.3-63.1-3.4-98.4-4.5c-35.2-1.1-72.6-2.2-134.6-0.1c-62,2.1-148.5,7.5-232.9,15.5c-84.4,8-166.5,18.4-261.3,35.7
		c-94.8,17.3-202.3,41.3-298.3,68.1c-96,26.9-180.5,56.6-261.3,90.1c-80.8,33.5-157.9,70.7-231.4,110.4s-143.5,81.9-213.1,126.6
		c-69.6,44.6-138.9,91.6-178.3,119.2c-39.4,27.5-48.9,35.7-53.6,39.7c-4.8,4.1-4.8,4.1-4.8,4.1l0,0l0,0l0,0l0,0l0,0l0,0l0,0l0,0l0,0
		l0,0l0,0l0,0c0,0,0,0,27.9-101.8c27.9-101.7,83.7-305.2,111.5-407c27.9-101.7,27.9-101.7,27.9-101.7l0,0l0,0l0,0l0,0l0,0l0,0l0,0
		l0,0c0,0,0,0,17.6-5.2c17.6-5.2,52.7-15.7,104.6-29.1c51.9-13.4,120.5-29.6,194.7-45.3s154-31,238.5-41.6
		c84.5-10.6,173.7-16.7,271.6-19.9c97.8-3.2,204.3-3.5,303.2,0.3c98.8,3.9,190.1,12,271.7,23.2c81.6,11.1,153.6,25.3,222.8,41.7
		c69.1,16.4,135.4,35,192,52.8c56.6,17.7,103.5,34.7,128.5,43.9c25,9.1,28,10.4,29.5,11.1c1.5,0.6,1.5,0.6,1.5,0.6s0,0-0.5-0.1
		C2473.7,2148.5,2472.7,2148.3,2466.1,2147z"/>
	<path class="st2" d="M136.2,2097.4c48.9-19.4,103.3-38.4,154.4-54.7c51.1-16.2,98.7-29.6,151.4-43.4
		c52.7-13.9,110.5-28.2,171.9-41.6s126.3-25.7,185.8-34.4c59.6-8.7,113.9-13.7,181.7-17.7c67.8-4,149.3-6.9,232.6-7.5
		s168.5,1.1,244.6,5.5c76,4.4,142.9,11.5,209,20.2c66,8.7,131.1,19,200,33.7c69,14.7,141.8,33.8,211.5,54.3
		c69.8,20.4,136.3,42.2,188,59.7c51.6,17.5,88.3,30.7,121.8,43.1c33.4,12.5,63.6,24.2,78.7,30.1c15.1,5.9,15.1,5.9,15.1,5.9l0,0l0,0
		l0,0l0,0l0,0l0,0l0,0l0,0l0,0l0,0l0,0l0,0l0,0l0,0l0,0l0,0l0,0l0,0l0,0l0,0l0,0l0,0l0,0l0,0l0,0l0,0l0,0l0,0l0,0l0,0l0,0
		c0,0,0,0-207.9-358.4c-208-358.4-623.9-1075.3-831.9-1433.7s-208-358.4-208-358.4l0,0l0,0l0,0l0,0l0,0l0,0l0,0l0,0l0,0l0,0l0,0l0,0
		l0,0l0,0l0,0l0,0l0,0l0,0l0,0l0,0l0,0l0,0l0,0l0,0l0,0l0,0l0,0l0,0l0,0l0,0l0,0l0,0l0,0c0,0,0,0-205.7,359.3
		C823.2,718.7,411.7,1437.3,206,1796.6C0.3,2155.8,0.3,2155.8,0.3,2155.8l0,0l0,0l0,0l0,0l0,0l0,0l0,0l0,0l0,0l0,0l0,0l0,0l0,0l0,0
		l0,0l0,0l0,0l0,0l0,0l0,0l0,0l0,0l0,0l0,0l0,0c0,0,0,0,0,0.1v0.1c0,0.1,0,0.1,0,0.1l0,0l0,0l0,0l0,0l0,0l0,0l0,0l0,0l0,0l0,0l0,0
		l0,0l0,0l0,0l0,0c0,0,0,0,21.7-9.8C43.7,2136.4,87.2,2116.8,136.2,2097.4z"/>
</g>
</svg>
