<svg height="511pt" viewBox="0 -66 511.99943 511" width="511pt" xmlns="http://www.w3.org/2000/svg"><path d="m179.898438 86.5625-133.878907-38.746094c-23.089843-6.683594-46.199219 10.703125-46.019531 34.742188.488281 65.15625 20.25 180.675781 145.375 233.53125 179.523438 75.832031 295.59375-70.417969 295.59375-70.417969s-2.472656 43.269531 35.117188 70.140625c5.207031 3.722656 12.292968-.910156 10.980468-7.175781-3.433594-16.414063-7.039062-44.292969-2.453125-77.96875 4.910157-36.078125 18.265625-67.25 26.625-84.019531 2.78125-5.585938-2.519531-11.777344-8.457031-9.855469-14.625 4.742187-36.683594 16.179687-53.257812 43.640625l-42.601563-18.328125s7.871094-36.65625-6.058594-42.84375c-13.929687-6.191407-33.652343 25.835937-33.652343 25.835937l-77.289063-26.632812s1.515625-55.535156 30.714844-93.984375c7.808593-10.28125-.089844-24.902344-12.96875-23.933594-41.554688 3.121094-104.691407 19.296875-127.769531 86.015625zm0 0" fill="#cac0c9"/><path d="m440.964844 245.78125c-.105469 2.320312-1.414063 43.941406 35.15625 70.054688 5.199218 3.710937 12.257812-.945313 10.949218-7.195313-1.382812-6.609375-2.792968-15.078125-3.683593-25.035156-26.660157-11.226563-38.027344-25.449219-42.421875-37.824219zm0 0" fill="#bbb0ba"/><path d="m440.777344 245.246094c-3.058594-8.984375-14.261719-11.964844-21.277344-5.578125-41.375 37.675781-140.054688 104.902343-274.121094 48.269531-112.902344-47.6875-140.019531-146.390625-144.597656-213.085938-.519531 2.476563-.8007812 5.046876-.78125 7.707032.488281 65.15625 20.25 180.675781 145.375 233.53125 177.914062 75.152344 293.503906-67.808594 295.5625-70.378906-.054688-.15625-.109375-.3125-.160156-.464844zm0 0" fill="#bbb0ba"/><path d="m2.222656 118.550781c7.703125 65.699219 38.742188 153.433594 143.152344 197.539063 110.710938 46.761718 197.289062 9.070312 247.394531-26.699219-333.839843-22.609375-390.546875-170.839844-390.546875-170.839844zm0 0" fill="#ffe9c8"/><path d="m145.375 287.9375c-82.652344-34.914062-119.324219-97.167969-134.839844-154.191406-6.101562-9.429688-8.308594-15.195313-8.308594-15.195313 7.699219 65.699219 38.738282 153.433594 143.148438 197.539063 110.710938 46.761718 197.289062 9.070312 247.398438-26.699219-14.347657-.972656-28.171876-2.179687-41.511719-3.59375-50.898438 24.316406-121.355469 37.847656-205.886719 2.140625zm0 0" fill="#ffdca7"/><path d="m139.984375 221.578125c-44.277344-2.214844-77.929687-14.644531-98.359375-24.683594-10.574219-5.195312-18.796875-10.300781-24.523438-14.238281 2.988282 8.238281 6.46875 16.503906 10.507813 24.703125 23.898437 12.800781 61.445313 27.328125 111.59375 29.835937.132813.007813.265625.011719.398437.011719 4.136719 0 7.59375-3.25 7.800782-7.429687.21875-4.3125-3.105469-7.984375-7.417969-8.199219zm0 0" fill="#433f43"/><path d="m178.484375 240.832031c15.585937 40.882813 59.328125 139.730469 117.953125 139.597657 37.503906-.085938 4.863281-70.785157 13.023438-138.921876" fill="#cac0c9"/><path d="m309.71875 297.199219c1.15625 28.488281-.703125 47.578125-21.296875 47.625-32.136719.070312-64.75-27.359375-90.230469-58.894531 21.839844 43.820312 56.214844 94.59375 98.246094 94.5 27.109375-.0625 17.570312-37.015626 13.28125-83.230469zm0 0" fill="#bbb0ba"/><path d="m105.882812 112.085938c-8.898437 0-15.871093 8.660156-15.871093 19.710937 0 11.054687 6.972656 19.714844 15.871093 19.714844 8.902344 0 15.871094-8.660157 15.871094-19.714844 0-11.050781-6.972656-19.710937-15.871094-19.710937zm0 0" fill="#433f43"/><g fill="#bbb0ba"><path d="m211.496094 134.707031c-2.023438-3.816406-6.753906-5.269531-10.570313-3.246093-3.816406 2.019531-5.269531 6.753906-3.25 10.570312.148438.273438 14.273438 27.746094-9.921875 52.578125-3.015625 3.09375-2.949218 8.042969.144532 11.058594 1.519531 1.480469 3.488281 2.21875 5.453124 2.21875 2.035157 0 4.070313-.792969 5.601563-2.363281 25.652344-26.328126 19.421875-57.835938 12.542969-70.816407zm0 0"/><path d="m242.917969 143.09375c-2.023438-3.816406-6.757813-5.269531-10.574219-3.246094-3.8125 2.019532-5.269531 6.753906-3.246094 10.570313.144532.273437 14.273438 27.746093-9.921875 52.578125-3.015625 3.09375-2.949219 8.046875.140625 11.058594 1.523438 1.480468 3.488282 2.21875 5.457032 2.21875 2.035156 0 4.070312-.789063 5.601562-2.363282 25.652344-26.328125 19.421875-57.835937 12.542969-70.816406zm0 0"/><path d="m274.335938 151.480469c-2.011719-3.800781-6.710938-5.242188-10.523438-3.246094s-5.285156 6.710937-3.3125 10.535156c.585938 1.132813 14.054688 28.023438-9.902344 52.613281-3.015625 3.09375-2.949218 8.042969.144532 11.058594 1.519531 1.480469 3.488281 2.21875 5.453124 2.21875 2.035157 0 4.070313-.789062 5.601563-2.363281 25.652344-26.328125 19.421875-57.832031 12.539063-70.816406zm0 0"/></g></svg>